<svg width="400" height="250" viewBox="0 0 400 250" fill="none" xmlns="http://www.w3.org/2000/svg">
      <defs>
        <linearGradient id="steamGrad" x1="0" y1="0" x2="400" y2="250" gradientUnits="userSpaceOnUse">
          <stop offset="0%" stopColor="#1B2838"/>
          <stop offset="100%" stopColor="#171A21"/>
        </linearGradient>
      </defs>
      <rect width="400" height="250" rx="16" fill="url(#steamGrad)"/>
      <rect x="1" y="1" width="398" height="248" rx="15" stroke="rgba(255,255,255,0.08)" stroke-width="2"/>
      <circle cx="200" cy="100" r="46" fill="#171A21" stroke="#66C0F4" stroke-width="2" opacity="0.3"/>
      <g transform="translate(165, 65) scale(1.5)" fill="#66C0F4">
        <path d="M24 4A20 20 0 0 0 4 24c0 9.6 6.8 17.6 16 19.6l5-7.2a7 7 0 0 1-1-3.4l-8.2-3.4a5 5 0 1 1 2.4-4.6c0 .4-.1.8-.2 1.2l8 3.4a7 7 0 0 1 10-5.6 7 7 0 1 1-7 7c0-.8.2-1.6.4-2.2L25 32A20 20 0 0 0 24 4z"/>
      </g>
      <text x="200" y="180" text-anchor="middle" fill="#FFFFFF" font-family="-apple-system, sans-serif" font-size="22" font-weight="900" letter-spacing="4">STEAM</text>
      <text x="200" y="202" text-anchor="middle" fill="#66C0F4" font-family="-apple-system, sans-serif" font-size="11" font-weight="700">WALLET CARD • GLOBAL</text>
    </svg>